<svg t="1569748588891" class="icon" viewBox="0 0 1024 1024" version="1.1" xmlns="http://www.w3.org/2000/svg" p-id="8877" width="200" height="200"><path d="M512 0C229.23 0 0 229.23 0 512s229.23 512 512 512a109.72 109.72 0 0 0 55.77-204.21c-0.62-0.37-1.25-0.73-1.88-1.09a109.75 109.75 0 0 1 80.47-201.41l3.55 0.88c35.34 8.61 75.5 13.46 118.11 13.46 141.38 0 256-53.55 256-119.62C1024 229.23 794.77 0 512 0zM289 419.63A87.75 87.75 0 1 1 241.48 305 87.76 87.76 0 0 1 289 419.63zM419.63 289a87.75 87.75 0 1 1 47.48-114.65A87.76 87.76 0 0 1 419.63 289zM719 241.49a87.75 87.75 0 1 1-47.48-114.64A87.74 87.74 0 0 1 719 241.49z m181.6 168.18a87.76 87.76 0 1 1-3.45-57.21 87.62 87.62 0 0 1 3.45 57.21z" p-id="8878" fill="#ffffff"></path></svg>