<svg t="1565667948363" class="icon" viewBox="0 0 1024 1024" version="1.1" xmlns="http://www.w3.org/2000/svg" p-id="9027" width="200" height="200"><path d="M622.816 702.72c-22.112-3.52-22.624-64.32-22.624-64.32s64.96-64.32 79.136-150.816c38.08 0 61.632-91.936 23.52-124.288 1.6-34.048 48.96-267.328-190.848-267.328-239.808 0-192.448 233.28-190.88 267.328-38.08 32.352-14.56 124.288 23.52 124.288 14.144 86.496 79.136 150.816 79.136 150.816s-0.512 60.8-22.624 64.32c-71.232 11.328-337.184 128.64-337.184 257.28l896 0c0-128.64-265.952-245.92-337.184-257.28z" p-id="9028" fill="#ffffff"></path></svg>