<svg t="1569748683085" class="icon" viewBox="0 0 1024 1024" version="1.1" xmlns="http://www.w3.org/2000/svg" p-id="10485" width="200" height="200"><path d="M512 1024C229.216 1024 0 794.784 0 512S229.216 0 512 0s512 229.216 512 512-229.216 512-512 512z m194.752-791.04a48.832 48.832 0 0 0-37.248-8.128c-13.44 2.304-24.064 8.928-31.84 19.84a49.28 49.28 0 0 0-8.16 37.408c2.336 13.472 9.216 24.128 20.576 31.904a242.368 242.368 0 0 1 78.432 89.184 246.912 246.912 0 0 1 28 114.88c0 34.272-6.592 66.624-19.84 96.96a255.744 255.744 0 0 1-53.568 79.456 255.52 255.52 0 0 1-79.232 53.76 238.752 238.752 0 0 1-96.736 19.84 238.72 238.72 0 0 1-96.64-19.84 255.04 255.04 0 0 1-79.264-53.76A249.312 249.312 0 0 1 278.08 615.04a243.84 243.84 0 0 1-19.456-96.96c0-40 8.704-77.376 26.016-112.192a241.76 241.76 0 0 1 74.944-88c10.88-8.32 17.376-19.2 19.424-32.736a46.656 46.656 0 0 0-9.312-36.608 48.768 48.768 0 0 0-32.224-19.456 48 48 0 0 0-36.928 9.344 376.96 376.96 0 0 0-59.04 56.096c-17.6 20.768-32.32 43.104-44.224 66.976-11.904 23.872-21.12 49.088-27.616 75.52A340.864 340.864 0 0 0 160 518.08c0 48.288 9.024 93.568 27.2 135.904a347.296 347.296 0 0 0 74.528 110.592c31.584 31.424 68.48 56.32 110.656 74.784 42.24 18.432 87.168 27.648 134.752 27.648 48.16 0 93.408-9.216 135.552-27.648a354.176 354.176 0 0 0 110.304-74.784 355.52 355.52 0 0 0 74.592-110.592 337.6 337.6 0 0 0 27.584-135.904 345.12 345.12 0 0 0-39.648-160.48 369.28 369.28 0 0 0-46.592-68.16 347.552 347.552 0 0 0-62.176-56.448z m-209.824 289.92c13.984 0 25.76-4.8 35.328-14.4 9.6-9.6 14.4-21.152 14.4-34.656v-296c0-13.472-4.8-25.152-14.4-35.04A47.296 47.296 0 0 0 496.96 128c-13.44 0-24.96 4.928-34.56 14.784A48.64 48.64 0 0 0 448 177.856v295.968c0 13.504 4.8 25.056 14.336 34.656 9.6 9.6 21.12 14.4 34.56 14.4z" p-id="10486" fill="#ffffff"></path></svg>